<svg width="64" height="64" viewBox="0 0 64 64" fill="none" xmlns="http://www.w3.org/2000/svg">
  <defs>
    <linearGradient id="grad" x1="0" y1="0" x2="1" y2="1">
      <stop offset="0%" stop-color="#667eea"/>
      <stop offset="100%" stop-color="#764ba2"/>
    </linearGradient>
  </defs>
  <rect x="4" y="4" width="56" height="56" rx="14" fill="url(#grad)"/>
  <g fill="#ffffff">
    <path d="M20 42l7.2-20h5.2l7.1 20h-4.9l-1.4-4.4h-6.8L25 42H20zm9.9-8.3h4.6l-2.3-7.1-2.3 7.1z"/>
    <path d="M44 42V22h4.8c2.1 0 3.7.6 4.8 1.7 1.1 1.1 1.7 2.7 1.7 4.8v6.9c0 2.1-.6 3.7-1.7 4.8-1.1 1.1-2.7 1.7-4.8 1.7H44zm4.8-3.9c.9 0 1.6-.2 2-.7.4-.5.6-1.2.6-2.2v-7.1c0-1-.2-1.8-.6-2.2-.4-.5-1.1-.7-2-.7h-1.3v13h1.3z" opacity="0.9"/>
  </g>
</svg>

